<?xml version="1.0" encoding="UTF-8" standalone="no"?>
<!-- Created with Inkscape (http://www.inkscape.org/) -->

<svg
   width="1920"
   height="1080"
   viewBox="0 0 508 285.75"
   version="1.1"
   id="svg5"
   sodipodi:docname="Music-App-logo.svg"
   inkscape:version="1.2 (dc2aedaf03, 2022-05-15)"
   inkscape:export-filename="Music-App-logo2.svg"
   inkscape:export-xdpi="96"
   inkscape:export-ydpi="96"
   xmlns:inkscape="http://www.inkscape.org/namespaces/inkscape"
   xmlns:sodipodi="http://sodipodi.sourceforge.net/DTD/sodipodi-0.dtd"
   xmlns="http://www.w3.org/2000/svg"
   xmlns:svg="http://www.w3.org/2000/svg">
  <sodipodi:namedview
     id="namedview7"
     pagecolor="#ffffff"
     bordercolor="#000000"
     borderopacity="0.25"
     inkscape:showpageshadow="2"
     inkscape:pageopacity="0.0"
     inkscape:pagecheckerboard="0"
     inkscape:deskcolor="#d1d1d1"
     inkscape:document-units="mm"
     showgrid="false"
     inkscape:zoom="0.72070006"
     inkscape:cx="924.10149"
     inkscape:cy="529.34642"
     inkscape:window-width="1390"
     inkscape:window-height="1080"
     inkscape:window-x="264"
     inkscape:window-y="-1"
     inkscape:window-maximized="1"
     inkscape:current-layer="layer1" />
  <defs
     id="defs2" />
  <g
     inkscape:label="Layer 1"
     inkscape:groupmode="layer"
     id="layer1">
    <path
       id="path61"
       style="opacity:1;fill:#000000;stroke-width:0.256331"
       d="M 107.12886,125.44196 A 50,50 0 0 0 57.128813,175.442 50,50 0 0 0 107.12886,225.44205 50,50 0 0 0 157.12891,175.442 50,50 0 0 0 107.12886,125.44196 Z m -13.061217,4.36355 3.9672,22.35213 a 25,25 0 0 0 -5.160409,2.74608 25,25 0 0 0 -4.357873,3.88452 L 68.945662,147.24062 a 47.5,47.5 0 0 1 11.100098,-10.82104 47.5,47.5 0 0 1 14.021883,-6.61407 z m 13.061217,23.13658 A 22.5,22.5 0 0 1 129.62878,175.442 22.5,22.5 0 0 1 107.12886,197.94192 22.5,22.5 0 0 1 84.628943,175.442 22.5,22.5 0 0 1 107.12886,152.94209 Z m 0,20.99975 a 1.5,1.5 0 0 0 -1.50017,1.50016 1.5,1.5 0 0 0 1.50017,1.50017 1.5,1.5 0 0 0 1.50017,-1.50017 1.5,1.5 0 0 0 -1.50017,-1.50016 z m 18.63142,18.1653 19.55178,11.53624 a 47.5,47.5 0 0 1 -11.10113,10.82208 47.5,47.5 0 0 1 -14.02085,6.61304 l -3.97133,-22.37383 a 25,25 0 0 0 5.16351,-2.72387 25,25 0 0 0 4.37802,-3.87366 z" />
    <path
       id="circle307"
       style="color:#000000;opacity:1;fill:#008080;-inkscape-stroke:none"
       d="m 107.12886,115.80844 c -23.746812,0 -44.282267,13.93525 -53.869062,34.06045 a 15,25 0 0 1 1.379244,0.39532 15,25 0 0 0 -1.379244,-0.39532 c -0.230832,0.48458 -0.455298,0.97287 -0.673344,1.46451 -0.218046,0.49164 -0.429545,0.98669 -0.634586,1.48518 -0.205041,0.49849 -0.403496,1.00022 -0.595313,1.50533 -0.191817,0.50512 -0.377147,1.01344 -0.555521,1.52498 -0.178375,0.51153 -0.349985,1.02635 -0.514698,1.54409 -0.164713,0.51773 -0.322523,1.03845 -0.473356,1.56218 -0.150833,0.52372 -0.294764,1.05025 -0.431498,1.57974 -0.136692,0.52934 -0.266223,1.06192 -0.388607,1.59681 0.122417,-0.53506 0.251873,-1.06731 0.388607,-1.59681 0.136734,-0.52949 0.280665,-1.05602 0.431498,-1.57974 0.150833,-0.52373 0.308643,-1.04445 0.473356,-1.56218 0.164713,-0.51774 0.336323,-1.03256 0.514698,-1.54409 0.178374,-0.51154 0.363704,-1.01986 0.555521,-1.52498 0.191817,-0.50511 0.390272,-1.00685 0.595313,-1.50533 0.205041,-0.49849 0.41654,-0.99354 0.634586,-1.48518 0.218046,-0.49164 0.442512,-0.97993 0.673344,-1.46451 a 15,25 0 0 0 -1.779219,-0.17674 15,25 0 0 0 -12.13311,10.31565 9,15 0 0 0 -1.835547,-0.31574 9,15 0 0 0 -8.999967,15.00012 9,15 0 0 0 8.999967,14.9996 9,15 0 0 0 1.835547,-0.31574 15,25 0 0 0 12.13311,10.31616 15,25 0 0 0 1.137398,-0.0734 c -0.20561,-0.46207 -0.405314,-0.92713 -0.599447,-1.39526 -0.194132,-0.46813 -0.382867,-0.93933 -0.56534,-1.41335 -0.182472,-0.47402 -0.359054,-0.9512 -0.529683,-1.43092 -0.170629,-0.47973 -0.334908,-0.9622 -0.49351,-1.44746 -0.158603,-0.48525 -0.311461,-0.97287 -0.457853,-1.46347 -0.146393,-0.49061 -0.286647,-0.98424 -0.420647,-1.48002 -0.134,-0.49578 -0.261498,-0.9937 -0.382922,-1.49448 -0.121424,-0.50078 -0.236533,-1.00439 -0.345199,-1.50999 -0.108665,-0.50559 -0.211235,-1.01318 -0.306958,-1.52342 -0.09572,-0.51023 -0.184569,-1.02268 -0.267167,-1.53737 -0.0826,-0.51469 -0.158604,-1.03183 -0.227893,-1.55081 -0.06929,-0.51898 -0.131788,-1.04013 -0.187585,-1.56321 -0.0558,-0.52308 -0.105155,-1.04809 -0.147278,-1.5751 -0.04212,-0.52701 -0.07715,-1.05571 -0.10542,-1.58647 -0.02826,-0.53075 -0.04986,-1.0635 -0.06408,-1.59783 -0.01422,-0.53433 -0.02119,-1.07045 -0.02119,-1.60817 0,-0.57178 0.0082,-1.14152 0.02429,-1.70946 0.01607,-0.56794 0.03991,-1.1342 0.07183,-1.69809 0.03192,-0.56388 0.07183,-1.12555 0.119373,-1.68516 0.04755,-0.55962 0.102923,-1.11712 0.165881,-1.67225 0.06296,-0.55514 0.133206,-1.10786 0.211357,-1.6583 0.07813,-0.55027 0.164256,-1.09847 0.257348,-1.64383 -0.09313,0.54553 -0.179198,1.09339 -0.257348,1.64383 -0.07815,0.55044 -0.148399,1.10316 -0.211357,1.6583 -0.06296,0.55513 -0.118335,1.11263 -0.165881,1.67225 -0.04755,0.55961 -0.08746,1.12128 -0.119373,1.68516 -0.03192,0.56389 -0.05576,1.13015 -0.07183,1.69809 -0.01607,0.56794 -0.02429,1.13768 -0.02429,1.70946 0,0.53772 0.007,1.07384 0.02119,1.60817 0.01422,0.53433 0.03581,1.06708 0.06408,1.59783 0.02827,0.53076 0.0633,1.05946 0.10542,1.58647 0.04212,0.52701 0.09148,1.05202 0.147278,1.5751 0.0558,0.52308 0.118296,1.04423 0.187585,1.56321 0.06929,0.51898 0.145296,1.03612 0.227893,1.55081 0.0826,0.51469 0.171445,1.02714 0.267167,1.53737 0.09572,0.51024 0.198293,1.01783 0.306958,1.52342 0.108666,0.5056 0.223775,1.00921 0.345199,1.50999 0.121424,0.50078 0.248922,0.9987 0.382922,1.49448 0.134,0.49578 0.274254,0.98941 0.420647,1.48002 0.146392,0.4906 0.29925,0.97822 0.457853,1.46347 0.158602,0.48526 0.322881,0.96773 0.49351,1.44746 0.170629,0.47972 0.347211,0.9569 0.529683,1.43092 0.182473,0.47402 0.371207,0.94522 0.56534,1.41335 0.194133,0.46813 0.393837,0.93319 0.599447,1.39526 a 15,25 0 0 0 5.932454,-2.88302 c -2.854251,-6.51512 -4.441072,-13.71597 -4.441072,-21.29431 0,-7.99014 1.763512,-15.56091 4.917529,-22.35006 a 15,25 0 0 0 -1.242818,-1.06918 15,25 0 0 1 1.242818,1.06918 c 8.419922,-18.12424 26.771596,-30.66738 48.101972,-30.66738 21.75286,0 40.40778,13.04505 48.59032,31.75104 a 15,25 0 0 1 1.29036,-1.00873 15,25 0 0 0 -1.29036,1.00873 c 2.84663,6.50766 4.42918,13.69875 4.42918,21.2664 0,7.98166 -1.75999,15.54453 -4.90771,22.32835 a 15,25 0 0 0 5.75986,3.23856 c 0.23072,-0.48449 0.45488,-0.97244 0.67283,-1.46399 0.21794,-0.49155 0.42964,-0.98679 0.63458,-1.48518 0.20495,-0.49839 0.40359,-1.00032 0.59531,-1.50534 0.19173,-0.50502 0.37672,-1.01302 0.55501,-1.52445 0.17829,-0.51143 0.34954,-1.02595 0.51418,-1.54358 0.16464,-0.51762 0.32259,-1.03856 0.47336,-1.56217 0.15076,-0.52362 0.2943,-1.04986 0.43098,-1.57924 0.13667,-0.52938 0.26624,-1.06187 0.3886,-1.5968 0.12237,-0.53493 0.23789,-1.07255 0.34572,-1.61282 0.10783,-0.54027 0.20819,-1.08293 0.30127,-1.62832 0.0931,-0.5454 0.17872,-1.09353 0.25684,-1.64383 0.0781,-0.55031 0.14894,-1.10278 0.21187,-1.65778 0.0629,-0.555 0.11784,-1.11225 0.16536,-1.67173 0.0475,-0.55948 0.0875,-1.12143 0.11938,-1.68517 0.0319,-0.56375 0.0558,-1.12926 0.0718,-1.69706 0.0161,-0.56779 0.0243,-1.13782 0.0243,-1.70945 0,-0.53691 -0.007,-1.07206 -0.0212,-1.60559 -0.0142,-0.53353 -0.0354,-1.06528 -0.0636,-1.59525 -0.0282,-0.52997 -0.0634,-1.05817 -0.10542,-1.5844 -0.042,-0.52623 -0.0911,-1.05071 -0.14676,-1.57303 -0.0556,-0.52232 -0.11798,-1.0424 -0.18706,-1.56063 -0.0691,-0.51823 -0.14451,-1.03478 -0.22686,-1.54874 -0.0824,-0.51396 -0.17122,-1.02528 -0.26665,-1.53479 -0.0954,-0.50951 -0.19759,-1.01698 -0.30593,-1.52187 -0.10834,-0.50489 -0.2231,-1.00732 -0.34416,-1.5074 -0.12107,-0.50009 -0.24829,-0.99783 -0.38189,-1.49294 -0.13361,-0.4951 -0.27365,-0.98747 -0.41962,-1.47743 -0.14596,-0.48995 -0.29816,-0.9773 -0.4563,-1.46192 -0.15814,-0.48462 -0.32234,-0.9668 -0.49248,-1.44591 -0.17013,-0.4791 -0.34618,-0.95543 -0.52813,-1.42885 -0.18194,-0.47342 -0.3697,-0.94373 -0.56327,-1.41128 -0.19358,-0.46756 -0.39287,-0.93221 -0.5979,-1.39372 a 15,25 0 0 0 -1.41076,0.30128 15,25 0 0 1 1.41076,-0.30128 c -9.28097,-20.89148 -30.2211,-35.4893 -54.52587,-35.4893 z m 54.52587,35.4893 c 0.20503,0.46151 0.40432,0.92617 0.5979,1.39372 0.19357,0.46755 0.38133,0.93786 0.56327,1.41128 0.18195,0.47342 0.358,0.94975 0.52813,1.42885 0.17014,0.47911 0.33434,0.96129 0.49248,1.44591 0.15814,0.48462 0.31034,0.97197 0.4563,1.46192 0.14597,0.48996 0.28601,0.98233 0.41962,1.47743 0.1336,0.49511 0.26082,0.99285 0.38189,1.49294 0.12106,0.50008 0.23582,1.00251 0.34416,1.5074 0.10834,0.50489 0.21049,1.01236 0.30593,1.52187 0.0954,0.50951 0.18429,1.02083 0.26665,1.53479 0.0824,0.51396 0.15777,1.03051 0.22686,1.54874 0.0691,0.51823 0.13143,1.03831 0.18706,1.56063 0.0556,0.52232 0.10477,1.0468 0.14676,1.57303 0.042,0.52623 0.0772,1.05443 0.10542,1.5844 0.0282,0.52997 0.0494,1.06172 0.0636,1.59525 0.0142,0.53353 0.0212,1.06868 0.0212,1.60559 0,0.57163 -0.008,1.14166 -0.0243,1.70945 -0.0161,0.5678 -0.0399,1.13331 -0.0718,1.69706 -0.0319,0.56374 -0.0718,1.12569 -0.11938,1.68517 -0.0475,0.55948 -0.10243,1.11673 -0.16536,1.67173 -0.0629,0.555 -0.13376,1.10747 -0.21187,1.65778 -0.0781,0.5503 -0.16375,1.09843 -0.25684,1.64383 -0.0931,0.54539 -0.19344,1.08805 -0.30127,1.62832 -0.10783,0.54027 -0.22335,1.07789 -0.34572,1.61282 -0.12236,0.53494 -0.25193,1.06742 -0.3886,1.5968 -0.13668,0.52938 -0.28022,1.05562 -0.43098,1.57924 -0.15077,0.52361 -0.30872,1.04455 -0.47336,1.56217 -0.16464,0.51763 -0.33589,1.03215 -0.51418,1.54358 -0.17829,0.51143 -0.36328,1.01943 -0.55501,1.52445 -0.19172,0.50502 -0.39036,1.00695 -0.59531,1.50534 -0.20494,0.49839 -0.41664,0.99363 -0.63458,1.48518 -0.21795,0.49155 -0.44211,0.9795 -0.67283,1.46399 a 15,25 0 0 0 1.77663,0.18449 15,25 0 0 0 12.13311,-10.31565 9,15 0 0 0 1.83555,0.31574 9,15 0 0 0 8.99997,-15.00012 9,15 0 0 0 -8.99997,-14.9996 9,15 0 0 0 -1.8309,0.31368 15,25 0 0 0 -12.13776,-10.3141 15,25 0 0 0 -1.12241,0.1049 z M 55.065373,150.43991 a 15,25 0 0 1 0.936893,0.43615 15,25 0 0 0 -0.936893,-0.43615 z m 1.408183,0.69919 a 15,25 0 0 1 0.905887,0.59376 15,25 0 0 0 -0.905887,-0.59376 z m 103.334264,0.60771 a 15,25 0 0 0 -0.96532,0.37827 15,25 0 0 1 0.96532,-0.37827 z m -1.44746,0.61185 a 15,25 0 0 0 -0.94361,0.54777 15,25 0 0 1 0.94361,-0.54777 z m -109.367485,9.77356 c -0.122416,0.53506 -0.237835,1.07243 -0.345715,1.61282 -0.107847,0.54023 -0.208173,1.08349 -0.301274,1.62885 0.09313,-0.54553 0.193394,-1.08845 0.301274,-1.62885 0.107847,-0.54023 0.223341,-1.07793 0.345715,-1.61282 z" />
    <path
       style="opacity:0.52;fill:#ff7f2a;stroke-width:11.4435"
       d="m 86.825951,-55.97386 c 9.070418,10.99343 23.904499,24.88886 17.948819,35.111281 -5.955682,10.222421 -9.000208,13.2220831 -31.522613,1.361874 0.264847,26.4820873 36.266543,7.191476 45.450483,24.1559973 14.34916,26.5056727 -14.35616,20.9817017 -25.604833,22.7919307 16.125153,29.601449 25.652303,9.532283 44.045863,29.805929 -0.077,-0.546308 -0.14853,-1.093586 -0.21084,-1.641776 -2.21421,-17.966702 3.87566,-36.727562 16.11849,-50.0443919 3.29833,-3.5558101 6.96945,-6.7744145 10.97575,-9.5104625 12.64654,-8.8071426 28.61686,-12.4597566 43.86717,-10.5398156 -15.6668,-19.956286 3.9846,-55.912106 -49.37642,-55.912106 9.02204,21.128759 6.90737,32.92657 -2.35944,37.594956 -14.03992,7.072958 -11.61841,-42.658054 -36.9142,-36.35659 5.24633,16.714442 -10.99184,26.887567 -32.418229,13.183174 z"
       id="rect1535"
       transform="rotate(45)" />
    <path
       id="path1823"
       style="opacity:0.52;fill:#ff7f2a;stroke-width:11.4435"
       d="m 86.825951,-55.97386 c 9.070409,10.993419 23.904489,24.88887 17.948819,35.111281 -1.48631,2.551127 -2.79116,4.65215 -4.26284,6.184888 6.22731,1.496366 8.28743,-1.254296 11.34334,-6.499504 4.55228,-7.813602 -6.78654,-18.434794 -13.719589,-26.837723 16.377449,10.47508 28.789099,2.699355 24.779019,-10.076479 19.33506,-4.816581 17.48449,33.195529 28.21604,27.789245 0.98592,-0.496681 1.86141,-1.102968 2.62728,-1.815345 -11.44598,0.513382 -10.76515,-42.955602 -34.51384,-37.039537 5.24632,16.714425 -10.99186,26.887553 -32.418229,13.183174 z m -13.573794,36.473155 c 0.264846,26.4820607 36.266553,7.191493 45.450483,24.1559973 1.8029,3.3303018 2.92537,6.1541687 3.48892,8.5512677 3.68401,-2.074076 4.97501,-6.2609157 0.3095,-14.8790304 C 116.73291,-12.32735 97.127833,-4.275692 90.206337,-12.294137 c -4.019496,-0.918593 -9.38301,-3.21962 -16.95418,-7.206568 z M 158.51782,-70.3954 c 1.88088,4.40484 3.2708,8.398709 4.21972,12.012408 28.46902,4.246826 17.05233,28.216091 27.93797,42.082161 -11.65671,-1.467521 -23.86367,1.324321 -33.53016,8.0561403 -3.06225,2.0913228 -5.86866,4.5515002 -8.38976,7.26941793 C 139.39767,9.2035672 134.74306,23.54331 136.43551,37.276321 c 0.0476,0.419017 0.10229,0.837598 0.16114,1.255175 -10.75941,-11.859182 -17.55006,-5.658936 -25.66915,-12.236037 -6.17522,0.863982 -13.371468,0.43431 -17.829693,1.151764 16.125133,29.60142 25.652323,9.532304 44.045863,29.805929 -0.077,-0.546307 -0.14853,-1.093586 -0.21084,-1.641776 -2.21421,-17.966684 3.87567,-36.727575 16.11849,-50.0443919 3.29833,-3.5558065 6.96945,-6.7744172 10.97575,-9.5104625 12.64652,-8.8071336 28.61688,-12.4597546 43.86717,-10.5398156 C 192.22746,-34.43956 211.87878,-70.3954 158.51782,-70.3954 Z"
       transform="rotate(45)" />
    <path
       id="path1830"
       style="opacity:0.52;fill:#ff7f2a;stroke-width:11.4435"
       d="m 86.825951,-55.97386 c 9.070409,10.993419 23.904489,24.88887 17.948819,35.111281 -0.2887,0.495535 -0.56615,0.958888 -0.84373,1.419608 9.9394,4.880982 11.58496,3.109855 14.5794,-2.029839 3.23311,-5.54936 -4.81961,-13.092845 -9.74359,-19.060754 11.63155,7.43959 20.44643,1.917115 17.59839,-7.156507 13.73211,-3.420825 12.41758,23.576395 20.03932,19.736758 2.11422,-1.065094 3.53935,-2.817205 4.12143,-5.338239 -8.33806,-6.858291 -10.01434,-41.163447 -31.28181,-35.865482 5.24632,16.714425 -10.99186,26.887553 -32.418229,13.183174 z m -13.573794,36.473155 c 0.263482,26.3456275 35.892263,7.394775 45.302133,23.9024044 6.44224,-0.2859243 13.20063,-1.5234396 7.51716,-12.0219086 -4.41406,-8.1536258 -20.23759,-0.8826453 -23.90788,-9.0847628 -4.733382,6.632726 -9.837228,7.2486571 -28.911413,-2.795733 z M 158.51782,-70.3954 c 4.7845,11.204841 6.4365,19.78477 5.55127,26.069636 8.08614,6.297359 4.31837,18.542709 10.42106,26.316287 -8.27881,-1.042267 -16.94866,0.940128 -23.81398,5.721186 -2.17486,1.4853 -4.1678,3.2328943 -5.95833,5.163209 -6.64616,7.22919021 -9.95206,17.413894 -8.75005,27.167321 0.0338,0.297593 0.0726,0.594655 0.11437,0.891229 -5.55494,-6.122729 -9.61998,-5.469793 -13.64103,-6.449809 2.44933,15.191197 -19.76822,11.422659 -29.343323,12.963564 16.125133,29.60142 25.652323,9.532304 44.045863,29.805929 -0.077,-0.546307 -0.14853,-1.093586 -0.21084,-1.641776 -2.21421,-17.966684 3.87567,-36.727575 16.11849,-50.0443919 3.29833,-3.5558065 6.96945,-6.7744172 10.97575,-9.5104625 12.64652,-8.8071336 28.61688,-12.4597546 43.86717,-10.5398156 C 192.22746,-34.43956 211.87878,-70.3954 158.51782,-70.3954 Z"
       transform="rotate(45)" />
  </g>
</svg>
