<?xml version="1.0" encoding="UTF-8" standalone="no"?>
<!-- Created with Inkscape (http://www.inkscape.org/) -->

<svg
   width="32"
   height="32"
   viewBox="0 0 8.4666667 8.4666667"
   version="1.1"
   id="svg5"
   xmlns="http://www.w3.org/2000/svg"
   xmlns:svg="http://www.w3.org/2000/svg">
  <defs
     id="defs2" />
  <g
     id="layer1">
    <path
       id="path61"
       style="opacity:1;fill:#000000;stroke-width:0.00939289"
       d="M 4.2489106,4.2418214 A 1.826992,1.8374017 0 0 0 2.4219169,6.0792248 1.826992,1.8374017 0 0 0 4.2489106,7.916628 1.826992,1.8374017 0 0 0 6.0759044,6.0792248 1.826992,1.8374017 0 0 0 4.2489106,4.2418214 Z M 3.7716545,4.4021757 3.9166161,5.2235718 A 0.91349602,0.91870089 0 0 0 3.7280562,5.3244833 0.91349602,0.91870089 0 0 0 3.5688202,5.4672338 L 2.8537009,5.0428808 A 1.7356424,1.7455316 0 0 1 3.2592977,4.6452292 1.7356424,1.7455316 0 0 1 3.7716545,4.4021757 Z m 0.4772561,0.8502221 a 0.82214642,0.82683078 0 0 1 0.8221425,0.826827 0.82214642,0.82683078 0 0 1 -0.8221425,0.826827 0.82214642,0.82683078 0 0 1 -0.8221427,-0.826827 0.82214642,0.82683078 0 0 1 0.8221427,-0.826827 z m 0,0.7717009 a 0.05480976,0.05512205 0 0 0 -0.054817,0.055123 0.05480976,0.05512205 0 0 0 0.054817,0.055129 0.05480976,0.05512205 0 0 0 0.054817,-0.055129 0.05480976,0.05512205 0 0 0 -0.054817,-0.055123 z M 4.9296984,6.6916376 5.6441173,7.1155718 A 1.7356424,1.7455316 0 0 1 5.2384845,7.5132599 1.7356424,1.7455316 0 0 1 4.7261636,7.7562768 L 4.5810523,6.9340826 A 0.91349602,0.91870089 0 0 0 4.769726,6.8339875 0.91349602,0.91870089 0 0 0 4.9296984,6.6916376 Z" />
    <path
       id="circle307"
       style="color:#000000;opacity:1;fill:#008080;stroke-width:0.0366438;-inkscape-stroke:none"
       d="m 4.2489106,3.8878088 c -0.8677046,0 -1.6180682,0.512094 -1.9683665,1.2516548 a 0.54809762,0.91870089 0 0 1 0.050396,0.01454 0.54809762,0.91870089 0 0 0 -0.050396,-0.01454 c -0.00844,0.017823 -0.016642,0.03575 -0.024604,0.053816 -0.00796,0.01806 -0.015684,0.03626 -0.023197,0.054576 -0.00748,0.018334 -0.014756,0.036759 -0.021761,0.055318 -0.007,0.018571 -0.013769,0.037246 -0.020294,0.056041 -0.00652,0.018784 -0.012781,0.037713 -0.018797,0.05674 -0.00602,0.019026 -0.011793,0.038163 -0.0173,0.057403 -0.00551,0.019234 -0.010775,0.038595 -0.015774,0.058053 -0.005,0.019446 -0.00973,0.039026 -0.014188,0.058679 0.00446,-0.019659 0.00922,-0.03922 0.014188,-0.058679 0.005,-0.019446 0.010266,-0.038807 0.015774,-0.058053 0.00551,-0.019233 0.011284,-0.038382 0.0173,-0.057403 0.00602,-0.019027 0.012301,-0.037944 0.018797,-0.05674 0.00652,-0.018784 0.01329,-0.037483 0.020294,-0.056041 0.00701,-0.018571 0.014278,-0.036996 0.021761,-0.055318 0.00748,-0.018334 0.015205,-0.03651 0.023197,-0.054576 0.00796,-0.01806 0.016163,-0.036012 0.024604,-0.053816 a 0.54809762,0.91870089 0 0 0 -0.065014,-0.00651 0.54809762,0.91870089 0 0 0 -0.4433408,0.3790819 0.32885856,0.55122052 0 0 0 -0.067071,-0.011617 0.32885856,0.55122052 0 0 0 -0.3288573,0.5512267 0.32885856,0.55122052 0 0 0 0.3288573,0.551206 0.32885856,0.55122052 0 0 0 0.067071,-0.011617 0.54809762,0.91870089 0 0 0 0.4433408,0.3791002 0.54809762,0.91870089 0 0 0 0.041561,-0.00275 c -0.00752,-0.016978 -0.014816,-0.034072 -0.02191,-0.051275 -0.00709,-0.017191 -0.013978,-0.034516 -0.020653,-0.051938 -0.00667,-0.017428 -0.01311,-0.034954 -0.019365,-0.052588 -0.00622,-0.017641 -0.012242,-0.035361 -0.018019,-0.05319 -0.00581,-0.017823 -0.011373,-0.03575 -0.016731,-0.05378 -0.00536,-0.018029 -0.010477,-0.036169 -0.015355,-0.054387 -0.00491,-0.018212 -0.00955,-0.036516 -0.014008,-0.054916 -0.00443,-0.018395 -0.00865,-0.036911 -0.012601,-0.055488 -0.00397,-0.018571 -0.00772,-0.037233 -0.011218,-0.05598 -0.0035,-0.018753 -0.00674,-0.037586 -0.00976,-0.056497 -0.00301,-0.018906 -0.0058,-0.037914 -0.00833,-0.05699 -0.00254,-0.019087 -0.00481,-0.038224 -0.00686,-0.057445 -0.00204,-0.019234 -0.00385,-0.038515 -0.00538,-0.057883 -0.00153,-0.019355 -0.00281,-0.038796 -0.00385,-0.058296 -0.00104,-0.019507 -0.00183,-0.039081 -0.00234,-0.058716 -5.088e-4,-0.019629 -7.797e-4,-0.039336 -7.797e-4,-0.059099 0,-0.021009 2.992e-4,-0.04195 9.01e-4,-0.06282 5.987e-4,-0.020863 0.00147,-0.041677 0.00264,-0.062402 0.00117,-0.020711 0.00264,-0.04136 0.00436,-0.061926 0.00174,-0.020558 0.00376,-0.041051 0.00606,-0.061451 0.0023,-0.020406 0.00486,-0.04071 0.00773,-0.060942 0.00284,-0.02023 0.006,-0.040363 0.0094,-0.060405 -0.0034,0.020048 -0.00655,0.040182 -0.0094,0.060405 -0.00284,0.020231 -0.00542,0.04054 -0.00773,0.060942 -0.0023,0.020412 -0.00433,0.040887 -0.00606,0.061451 -0.00174,0.020558 -0.0032,0.041203 -0.00436,0.061926 -0.00117,0.020711 -0.00204,0.041531 -0.00264,0.062402 -5.986e-4,0.020863 -9.01e-4,0.04181 -9.01e-4,0.06282 0,0.01975 2.558e-4,0.039464 7.797e-4,0.059099 5.089e-4,0.019629 0.00132,0.039214 0.00234,0.058716 0.00104,0.019507 0.0023,0.038935 0.00385,0.058296 0.00153,0.019355 0.00335,0.038661 0.00538,0.057883 0.00204,0.019233 0.00432,0.03837 0.00686,0.057445 0.00254,0.019082 0.00531,0.038078 0.00833,0.05699 0.00302,0.018906 0.00627,0.037744 0.00976,0.056497 0.0035,0.018754 0.00725,0.037403 0.011218,0.05598 0.00398,0.018571 0.00817,0.037087 0.012601,0.055488 0.00443,0.018395 0.0091,0.036698 0.014008,0.054916 0.00491,0.018212 0.010027,0.036358 0.015355,0.054387 0.00536,0.01803 0.010925,0.035951 0.016731,0.05378 0.00581,0.017824 0.011793,0.035561 0.018019,0.05319 0.00622,0.017641 0.012691,0.035166 0.019365,0.052588 0.00667,0.017428 0.013559,0.034735 0.020653,0.051938 0.00709,0.017221 0.014397,0.034297 0.02191,0.051275 A 0.54809762,0.91870089 0 0 0 2.4738634,6.8616603 C 2.3695698,6.6222432 2.3115863,6.3576274 2.3115863,6.0791379 c 0,-0.2936223 0.06444,-0.5718347 0.1796853,-0.8213214 a 0.54809762,0.91870089 0 0 0 -0.045413,-0.039288 0.54809762,0.91870089 0 0 1 0.045413,0.039288 C 2.7989353,4.5917863 3.4695015,4.1308507 4.2489108,4.1308507 c 0.7948451,0 1.4764949,0.4793788 1.7754816,1.1667878 a 0.54809762,0.91870089 0 0 1 0.047151,-0.037069 0.54809762,0.91870089 0 0 0 -0.047151,0.037069 c 0.1040152,0.2391435 0.161843,0.5034006 0.161843,0.7814994 0,0.2933092 -0.064311,0.5712298 -0.1793291,0.8205238 a 0.54809762,0.91870089 0 0 0 0.2104669,0.1190086 c 0.00844,-0.017796 0.016612,-0.035734 0.024574,-0.053797 0.00796,-0.01806 0.015714,-0.03626 0.023197,-0.054576 0.00748,-0.018303 0.014757,-0.036759 0.021761,-0.055318 0.00701,-0.01854 0.013769,-0.03722 0.020294,-0.056017 0.00652,-0.018784 0.012781,-0.037701 0.018797,-0.056722 0.00602,-0.019027 0.011793,-0.038169 0.0173,-0.057408 0.00551,-0.019234 0.010745,-0.038583 0.015744,-0.058035 0.005,-0.019446 0.00973,-0.03902 0.014188,-0.058679 0.00446,-0.019659 0.00868,-0.039416 0.012631,-0.059269 0.00395,-0.019866 0.0076,-0.039798 0.011015,-0.05984 0.00341,-0.020048 0.00652,-0.040182 0.0094,-0.060405 0.003,-0.02023 0.00545,-0.040528 0.00775,-0.060921 0.00239,-0.020382 0.00431,-0.040874 0.00605,-0.061433 0.00179,-0.020558 0.0032,-0.041209 0.00437,-0.061926 0.00119,-0.020711 0.00209,-0.041501 0.00269,-0.062366 5.986e-4,-0.020863 9.011e-4,-0.04181 9.011e-4,-0.062817 0,-0.019744 -2.545e-4,-0.039397 -9.011e-4,-0.059001 -5.986e-4,-0.019598 -0.00119,-0.039148 -0.00239,-0.058618 -9.01e-4,-0.019477 -0.00239,-0.038887 -0.00386,-0.058224 -0.0015,-0.019324 -0.00332,-0.038613 -0.00536,-0.05781 -0.00209,-0.019203 -0.00431,-0.038303 -0.00682,-0.057348 -0.00239,-0.019057 -0.00527,-0.038023 -0.00829,-0.05691 -0.00302,-0.018875 -0.00626,-0.037677 -0.00976,-0.0564 -0.00347,-0.018723 -0.00722,-0.037373 -0.011165,-0.055926 -0.00395,-0.01854 -0.00814,-0.037014 -0.012571,-0.055397 -0.00443,-0.018364 -0.00907,-0.036668 -0.013948,-0.054862 -0.00488,-0.018182 -0.01,-0.036291 -0.015325,-0.054291 -0.00532,-0.018 -0.010895,-0.035914 -0.016672,-0.053725 -0.00578,-0.017824 -0.011763,-0.035525 -0.017989,-0.053135 -0.00622,-0.017611 -0.012662,-0.035111 -0.019306,-0.052509 -0.00664,-0.017398 -0.013499,-0.03468 -0.020593,-0.051865 -0.00707,-0.017191 -0.014367,-0.034255 -0.02185,-0.051215 a 0.54809762,0.91870089 0 0 0 -0.051548,0.011076 0.54809762,0.91870089 0 0 1 0.051548,-0.011076 C 5.9021036,4.4242043 5.1369565,3.8877631 4.2488627,3.8877631 Z m 1.9923657,1.3041621 c 0.00748,0.016948 0.014787,0.034036 0.02185,0.051214 0.00707,0.017191 0.013948,0.034467 0.020593,0.051864 0.00664,0.017398 0.01308,0.034899 0.019306,0.052509 0.00622,0.017611 0.012212,0.035324 0.017989,0.053135 0.00578,0.017823 0.011344,0.03572 0.016672,0.053725 0.00532,0.018 0.010446,0.036096 0.015325,0.054291 0.00488,0.018212 0.00952,0.036485 0.013948,0.054862 0.00443,0.018395 0.00862,0.036837 0.012571,0.055391 0.00395,0.01854 0.00769,0.037202 0.011165,0.055926 0.0035,0.018723 0.00673,0.037513 0.00976,0.0564 0.00302,0.018875 0.00578,0.037865 0.00829,0.056916 0.00239,0.019057 0.00479,0.038157 0.00682,0.057348 0.00209,0.019203 0.00383,0.038467 0.00536,0.057804 0.0015,0.019324 0.00269,0.038746 0.00386,0.058224 9.011e-4,0.019477 0.00179,0.039014 0.00239,0.058618 5.986e-4,0.019598 9.01e-4,0.03927 9.01e-4,0.059001 0,0.021015 -2.933e-4,0.041956 -9.01e-4,0.06282 -5.986e-4,0.020863 -0.0015,0.041646 -0.00269,0.062363 -0.00119,0.020711 -0.00269,0.041367 -0.00437,0.061926 -0.00179,0.020558 -0.00374,0.041038 -0.00605,0.061432 -0.00239,0.020406 -0.00488,0.040698 -0.00775,0.06092 -0.003,0.02023 -0.00598,0.040363 -0.0094,0.060412 -0.00341,0.020048 -0.00707,0.03998 -0.011015,0.059835 -0.00395,0.019835 -0.00817,0.03961 -0.012631,0.059269 -0.00446,0.019659 -0.00922,0.039227 -0.014188,0.058679 -0.005,0.019446 -0.010237,0.038796 -0.015744,0.058035 -0.00551,0.019233 -0.011284,0.038388 -0.0173,0.057408 -0.00602,0.019027 -0.012272,0.037926 -0.018797,0.056722 -0.00652,0.018784 -0.01329,0.037464 -0.020294,0.056023 -0.00701,0.018571 -0.014248,0.037002 -0.021761,0.055318 -0.00748,0.018303 -0.015235,0.036516 -0.023197,0.054576 -0.00796,0.018063 -0.016163,0.035992 -0.024574,0.053797 a 0.54809762,0.91870089 0 0 0 0.064919,0.00676 0.54809762,0.91870089 0 0 0 0.4433405,-0.3790821 0.32885856,0.55122052 0 0 0 0.067074,0.011592 0.32885856,0.55122052 0 0 0 0.3288552,-0.5512237 0.32885856,0.55122052 0 0 0 -0.3288552,-0.551206 0.32885856,0.55122052 0 0 0 -0.066903,0.011532 0.54809762,0.91870089 0 0 0 -0.4435112,-0.3790218 0.54809762,0.91870089 0 0 0 -0.041012,0.00383 z m -3.894757,-0.031525 a 0.54809762,0.91870089 0 0 1 0.034233,0.016011 0.54809762,0.91870089 0 0 0 -0.034233,-0.016011 z m 0.051456,0.025708 a 0.54809762,0.91870089 0 0 1 0.033099,0.021823 0.54809762,0.91870089 0 0 0 -0.033099,-0.021823 z m 3.7758149,0.022334 a 0.54809762,0.91870089 0 0 0 -0.035271,0.013909 0.54809762,0.91870089 0 0 1 0.035271,-0.013909 z m -0.052889,0.022486 a 0.54809762,0.91870089 0 0 0 -0.034478,0.020139 0.54809762,0.91870089 0 0 1 0.034478,-0.020139 z M 2.1246305,5.5901301 c -0.00446,0.019659 -0.00868,0.039409 -0.012631,0.059269 -0.00394,0.019835 -0.00761,0.039817 -0.011009,0.059859 0.0034,-0.020048 0.00707,-0.039999 0.011009,-0.059859 0.00394,-0.019866 0.00816,-0.03961 0.012631,-0.059269 z" />
    <path
       style="opacity:0.52;fill:#ff7f2a;stroke-width:0.419334"
       d="M 4.0240376,0.43376186 C 3.9743542,0.95511531 3.9985957,1.7016478 3.5806012,1.8125172 3.1626007,1.9233864 3.0064328,1.9222211 2.7309484,1.0287965 2.0535574,1.7238096 3.4821772,2.1580443 3.2811448,2.8375064 2.9670487,3.8991087 2.3680999,3.0096695 2.0306902,2.7644125 1.6824956,3.9526094 2.4471911,3.6786771 2.3986152,4.6834378 2.410737,4.6672437 2.4230398,4.651159 2.4355862,4.6352936 2.8425928,4.1108962 3.4846761,3.7816457 4.1450745,3.7537376 c 0.1770962,-0.00668 0.3551082,0.00505 0.529313,0.038078 0.5543121,0.099764 1.0613202,0.4198375 1.405746,0.866002 C 6.1909642,3.7321596 7.6277189,3.3084934 6.2489985,1.9219202 5.9361925,2.7053824 5.5767262,2.9569937 5.2166761,2.8375064 4.6711702,2.6564726 6.0186631,1.4271436 5.2022789,0.93358031 4.9059713,1.5042265 4.2235672,1.3466266 4.0240492,0.43376186 Z"
       id="rect1535" />
    <path
       id="path1823"
       style="opacity:0.52;fill:#ff7f2a;stroke-width:0.419334"
       d="M 4.0240376,0.43376186 C 3.9743541,0.95511531 3.9985951,1.7016478 3.5806012,1.8125172 3.4762837,1.8401822 3.3882849,1.8608749 3.3106573,1.8624609 3.4328949,2.0631606 3.5571948,2.045217 3.7716754,1.9883268 4.0911772,1.9035833 4.0726375,1.3329583 4.1106147,0.93445431 4.263119,1.6322126 4.7847098,1.7526756 5.011196,1.3164985 5.6352156,1.6937562 4.605261,2.6334063 5.022211,2.7717824 c 0.038307,0.012705 0.076592,0.01972 0.1147876,0.0211 C 4.8279967,2.5087994 5.9687224,1.3969596 5.2022552,0.93358271 4.9059476,1.504229 4.2235435,1.3466291 4.0240255,0.43376436 Z M 2.7309484,1.0287965 C 2.053558,1.7238096 3.4821772,2.1580443 3.2811448,2.8375064 3.2416801,2.9708918 3.1977195,3.0734348 3.1503467,3.1503671 3.2991217,3.1922018 3.4406562,3.1169516 3.5427797,2.7717812 3.6690431,2.3450325 2.9544596,2.0448183 2.9828018,1.656609 2.9026809,1.5282928 2.8235538,1.3291311 2.7309484,1.0287965 Z M 6.2489987,1.9219202 C 6.1837867,2.0852512 6.1165066,2.2251483 6.0476549,2.3437085 6.6734973,3.1938225 5.7592102,3.519997 5.6822052,4.1631646 5.418939,3.8221346 5.0314088,3.577486 4.6077154,3.5012279 4.4745587,3.4760007 4.3384838,3.467004 4.2031213,3.4721223 3.6983371,3.4934652 3.20757,3.7451215 2.8964701,4.1459463 2.8868619,4.1580797 2.8774635,4.170359 2.8682149,4.1827477 2.89662,3.5950101 2.5609792,3.5796671 2.5211372,3.1977913 2.339261,3.0597793 2.1644307,2.86162 2.0307024,2.7644173 1.6825077,3.9526142 2.4472033,3.678682 2.3986273,4.6834426 c 0.012122,-0.016194 0.024425,-0.032279 0.036971,-0.048144 0.4070065,-0.5243944 1.0490899,-0.8536479 1.7094882,-0.8815559 0.1770932,-0.00668 0.3551082,0.00505 0.5293131,0.038078 0.5543122,0.099764 1.0613233,0.4198376 1.4057461,0.8660022 C 6.1909763,3.7321675 7.627728,3.3084983 6.2490107,1.9219251 Z" />
    <path
       id="path1830"
       style="opacity:0.52;fill:#ff7f2a;stroke-width:0.419334"
       d="M 4.0240376,0.43376186 C 3.9743541,0.95511531 3.9985951,1.7016478 3.5806012,1.8125172 c -0.020264,0.00535 -0.039402,0.010206 -0.058477,0.01496 0.130696,0.3851054 0.2189762,0.3818422 0.4291408,0.3260991 0.2269173,-0.060187 0.2137624,-0.465454 0.2407337,-0.7484772 0.1083104,0.4955595 0.4787526,0.5811128 0.639605,0.2713317 0.4431908,0.2679361 -0.288316,0.9352939 0.00781,1.0335714 0.082148,0.02727 0.1642374,0.018753 0.2444152,-0.031616 C 5.0455966,2.2835126 5.8886497,1.3485403 5.2022615,0.93357661 4.9059538,1.5042229 4.2235497,1.346623 4.0240318,0.43375827 Z M 2.7309484,1.0287965 C 2.057048,1.7202303 3.4672534,2.1536014 3.2838655,2.8270611 3.4577022,2.9870324 3.6642989,3.1304904 3.7887065,2.710006 3.8853286,2.3834369 3.2886217,2.1612023 3.405714,1.8527002 3.1120403,1.9020545 2.9642562,1.785437 2.7309484,1.0287965 Z M 6.2489987,1.9219202 C 6.0831148,2.3373987 5.9041121,2.6032728 5.7188564,2.743582 5.7650738,3.1173328 5.3513326,3.3376233 5.3081622,3.6981921 5.1211856,3.4559879 4.8459587,3.2822139 4.5450446,3.2280573 4.4504758,3.210149 4.3538267,3.2037662 4.2576895,3.2074074 3.899184,3.2225499 3.5506218,3.4013012 3.3296728,3.6859766 c -0.00682,0.00861 -0.013499,0.017337 -0.020084,0.026127 C 3.3242552,3.4086621 3.2023591,3.3199995 3.1237857,3.1900487 2.7945653,3.6484348 2.3178899,2.9731896 2.0306785,2.7644227 1.6824839,3.9526197 2.4471794,3.6786875 2.3986034,4.6834482 2.4107252,4.6672541 2.423028,4.6511693 2.4355744,4.635304 2.842581,4.1109099 3.4846643,3.7816565 4.1450627,3.7537484 c 0.1770932,-0.00668 0.3551082,0.00505 0.529313,0.038078 0.5543119,0.099764 1.061323,0.4198376 1.4057458,0.8660022 0.1108306,-0.9256553 1.5475823,-1.349325 0.168865,-2.7358977 z" />
  </g>
</svg>
